<?xml version="1.0" encoding="utf-8"?>
<!-- Generator: Adobe Illustrator 19.2.1, SVG Export Plug-In . SVG Version: 6.00 Build 0)  -->
<!DOCTYPE svg PUBLIC "-//W3C//DTD SVG 1.1//EN" "http://www.w3.org/Graphics/SVG/1.1/DTD/svg11.dtd">
<svg version="1.1" id="CD_Projekt_RED_logo" xmlns="http://www.w3.org/2000/svg" xmlns:xlink="http://www.w3.org/1999/xlink"
	 x="0px" y="0px" viewBox="0 0 586.7 333.9" style="enable-background:new 0 0 586.7 333.9;" xml:space="preserve">
<style type="text/css">
	.st0{fill:#DB0D15;}
	.st1{fill:#FFFFFF;}
</style>
<g id="CD_Projekt_S.A._horizontal_1_">
	<g>
		<path class="st0" d="M55.4,291.3c4.6-5,10.1-10.6,13.3-13.3c-0.9-0.1-2.4-0.3-3.9-0.5c-3.4,3.1-7.7,7.6-11.6,11.8
			c-4.9,5.3-9,9.9-9,10c-0.1,0-0.1,0.1-0.2,0.2c-3.2,0.9-8.7,2.4-12.3,3.4c-5.4,1.5-10.2,1.1-10.2,4.6c0,0-5.6,3-4.3,7.4
			c0,0,11.2-8.9,20.7-10.4c0,0-5.8,3.8-5.3,8.9c0,0,7.9-11.8,17-4.6c0,0-4.1-5.6-2.4-8.6C48.9,298.5,51.9,295,55.4,291.3z
			 M37.7,152.5c-0.5,0.2-1,0.3-1.5,0.3c-1.6,0-3.2-1-3.8-2.6c-0.1-0.1-0.1-0.3-0.2-0.5l-1.2,0.4c1,3,4.1,4.6,6.8,3.6
			c0.7-0.2,1.3-0.6,1.8-1.1c1.5-1.4,2.1-3.8,1.4-6l-2.8,0.9c0.2,0.4,0.3,0.9,0.3,1.3c0,0.4-0.1,0.8-0.2,1.1l1.3,0.8
			c-0.2,0.3-0.5,0.7-0.8,0.9C38.5,152.1,38.1,152.3,37.7,152.5z M150.2,143.5l-54.9,13.4c0,0,0,0,0-0.1l0,0.1l107.2-46.4l-88.3,10.8
			l47.3-34.5l-50.7,19.8l0,0l7.7-15.4l-36.2,26.1l-0.3-0.6L133.3,5.6l-83.6,98.9l-0.5-53.9l-30.7,72.1l-1.6-21.2L1.8,156.7l0,0v0
			c0,0,2-1.5,4.8-2.3l0,0c0.2-0.1,0.4-0.1,0.7-0.2c0,0,0.1,0,0.1,0c0.2,0,0.4-0.1,0.7-0.1c0,0,0.1,0,0.1,0c0.2,0,0.4-0.1,0.7-0.1
			c0,0,0,0,0,0c0.2,0,0.5,0,0.7-0.1c0.1,0,0.1,0,0.1,0c0.2,0,0.5,0,0.7,0c0,0,0,0,0.1,0c0.2,0,0.4,0,0.6,0.1c0,0,0.1,0,0.1,0
			c0.2,0,0.5,0.1,0.7,0.1c0.1,0,0.1,0,0.2,0c0.2,0.1,0.5,0.1,0.7,0.2c5.2,1.9,9.6,0,9.6,0s4.9,3.1,4.9,5.7h0c0,0,0,0,0,0
			s-6.4,0.4-6.4-2.5c0,0-8.2-2.9-19.6,1.3l24.2,10.4c0-0.1-1.3-4.6,0.1-6.2c0.4-0.5,1.2-0.7,2.4-0.3c0.4,0.2,0.8,0.1,1-0.1
			c1.9-1.9-7.2-18.8-7.2-18.8s-8.2-0.8-15.3,6.6c-0.5,0.5-1,1-1.4,1.6v0c0,0,0,0,0,0c0.7-1.3,3-4.9,6.8-8.1c2.3-1.9,5.2-3.7,8.6-4.6
			c0.9-2.2-0.2-0.8,1.7-2c0,0,0,0,0,0c0.9-5.9,4.3-21.2,15.9-34.3c0.8-0.9,1.6-1.7,2.4-2.6c0,0-3,5.6-3,9.5c0.1-0.1,3-4.5,7.1-8.5
			l0,0v0c0,0,0,0.1-0.1,0.2c-0.8,1.6-6.3,13.4-5.7,16.8c0,0,0,0.1,0,0.1l11.2-10.2c0,0,0,0,0,0c-0.3,0.4-10.5,14.2-11.5,18.9
			c0,0,0,0,0,0l16.9-12.1l0,0c-0.1,0.1-2.1,3-3,4.6c-0.6,1.1-0.7,1.5-0.7,1.6l0,0.1l9.1-3.9c0,0-0.4,0.5-1,1.2l-3.4,3.4l-0.8,0.9
			l-6.2,6.2l-0.1,0.1l-4.7,4.8l-3,3.1l0,0c0,0-2.5,2.6-2.8,3.9c-0.3,1.3,1.1,2.1,1.1,2.1h0c1.3,0.7,2.3,1.8,2.9,3.1
			c0.3,0.8,0.5,1.6,0.5,2.5c0,1.8-0.7,3.4-2,4.6c-1.2,1.2-2.9,1.9-4.8,1.9c-1.7,0-3.2-0.6-4.4-1.6c0.2,0.3,3.5,4.5,9.6,1.2l7.6-5.5
			l0.3-0.3l7.8-5.7c1.8,2.2,3.6,4.8,5.2,7.8l0,0c-4.6,4.4-12.6,12.1-20.4,20.4c-4.7,5-9.4,10.2-13.4,15.2l0,0l0,0l2.8-13.2l0,0
			l0.2-1.1c0,0,0,0,0,0l0,0c0,0,0,0-0.1,0c0,0,0,0,0,0c0,0-0.1,0-0.1,0.1c0,0,0,0,0,0c0,0-0.1,0-0.1,0.1c0,0,0,0.1-0.1,0.1
			c0,0-0.1,0.1-0.1,0.1c0,0,0,0.1-0.1,0.1c0,0-0.1,0.1-0.1,0.1c0,0-0.1,0.1-0.1,0.1c0,0-0.1,0.1-0.1,0.1c0,0.1-0.1,0.1-0.1,0.1
			c-0.1,0-0.1,0.1-0.2,0.1c0,0-0.1,0.1-0.1,0.1c-0.1,0.1-0.1,0.1-0.2,0.2c-0.1,0-0.1,0.1-0.2,0.1c0,0.1-0.1,0.1-0.2,0.2
			c0,0-0.1,0.1-0.2,0.2c-0.1,0.1-0.2,0.1-0.2,0.2c-0.1,0.1-0.1,0.1-0.2,0.1c-0.1,0.1-0.1,0.2-0.2,0.3c-0.1,0-0.1,0.1-0.1,0.1
			c0,0-0.1,0.1-0.2,0.1c0,0,0,0,0,0c-0.1,0.1-0.2,0.2-0.3,0.3c-0.1,0-0.1,0.1-0.2,0.2c-0.1,0.1-0.2,0.2-0.3,0.3
			c-0.1,0.1-0.1,0.2-0.2,0.2c-0.1,0.1-0.1,0.2-0.2,0.2c0,0-0.1,0.1-0.1,0.1c0,0,0,0-0.1,0.1c-0.1,0.1-0.1,0.1-0.2,0.2
			c-0.1,0.1-0.1,0.2-0.2,0.2c0,0,0,0.1-0.1,0.1c0,0-0.1,0-0.1,0.1c0,0.1-0.1,0.1-0.2,0.2c-0.1,0.1-0.2,0.2-0.3,0.3
			c-0.1,0.1-0.2,0.2-0.2,0.3c-0.1,0.1-0.2,0.2-0.3,0.3c-0.1,0.1-0.2,0.2-0.3,0.3c-0.1,0.1-0.2,0.3-0.3,0.4c-0.1,0.1-0.2,0.2-0.3,0.3
			c-0.1,0.1-0.2,0.3-0.3,0.4c-0.1,0.1-0.2,0.2-0.3,0.3c-0.1,0.2-0.2,0.3-0.3,0.5c-0.1,0.1-0.2,0.2-0.2,0.3c-0.1,0.2-0.3,0.4-0.4,0.6
			c0,0.1-0.1,0.2-0.2,0.2c-0.2,0.3-0.4,0.6-0.6,0.9l0,0c-0.2,0.3-0.4,0.6-0.6,0.9c0,0.1-0.1,0.2-0.2,0.3c-0.1,0.2-0.3,0.4-0.4,0.7
			c-0.1,0.1-0.1,0.2-0.2,0.3c-0.1,0.2-0.3,0.4-0.4,0.6c-0.1,0.1-0.1,0.3-0.2,0.4c-0.1,0.2-0.3,0.4-0.4,0.7c-0.1,0.1-0.2,0.3-0.2,0.4
			c-0.1,0.2-0.3,0.5-0.4,0.7c-0.1,0.1-0.2,0.3-0.2,0.4c-0.1,0.3-0.3,0.5-0.4,0.7c-0.1,0.1-0.1,0.3-0.2,0.4c-0.6,1.1-1.2,2.3-1.8,3.6
			c0,0,0,0,0,0l0,0l0,0l-3.1,0.5c0.6-1.6,1.2-3.1,1.9-4.4l-5.1,7.1l5.1-0.5c-4.3,10-7.5,23-7.5,41.6l4.1-2.6
			c3.6,20.7,20.7,29.8,20.7,29.8l0-0.1c9.4,6.2,20.9,10.5,33.5,12.2l0,0c1.8,0.2,3.2,0.4,3.5,0.4c0,0,0,0,0,0c0.2,0,0.4,0.1,0.7,0.1
			c6.8,0.6,13.5,0.4,19.8-0.6c0,0.2,0,0.5,0,0.7c0,4.1,2.3,7.5,5.2,7.8c-6,10.1-10.8,23.6-10.8,23.7c-0.2,0.6-0.7,1.8-1.2,2.1
			c-1.5,0.3-1.6,0.4-3.2,0.9l0,0c-0.5-0.5-5.3-1.4-10.1,0.4l0,0c0,0,0,0,0,0c-2.7,1.2-5.4,3.4-7.2,7c2-1.6,5.6-4.1,8.6-3.8
			c-3.5,2-9.6,5.8-10.3,11.3c0,0,21.1-14.8,31.4-12c0,0-1.5,1.7,2.1,8.1l1.6-5.9c1.9-5.8-5.3-6.6-8.4-6.7c0,0,0-0.1,0-0.1
			c0,0,0.3-0.9,0.9-2.5c1.8-4.6,5.9-14.8,10.5-22.1c0.1-0.2,0.1-0.3,0.2-0.5l-0.9-1.2c0,0,0.6-0.7,0.9-1.2c0.6-1,1.4-2.6,1.5-4.7
			c0-1.7-0.4-3.8-1.6-6.4l0,0l0,0l2.7-1.3c0.1,0.3,0.3,0.7,0.4,1c0,0.1,0.1,0.2,0.1,0.3c0.1,0.2,0.2,0.4,0.2,0.7
			c0,0.1,0.1,0.2,0.1,0.3c0.1,0.2,0.1,0.5,0.2,0.7c0,0.1,0.1,0.2,0.1,0.2l15.4-4.7l-3.4-2.8l0,0l0,0l0,0h0l-0.1-0.2l-0.1-0.1l0,0
			L57,212.2c0,0,0,0,0,0l0,0c16.2,7.9,35.1,17,67.2,31.9c31.6,14.6,51.6,23,61.9,27.3c0.1,0.1,0.2,0.1,0.3,0.1h0
			c1.5,0.6,2.8,1.1,3.9,1.6c2.2,0.9,4.3,1.7,4.4,1.7c0.2-0.1,0.4-0.2,0.6-0.2L77.3,193.8L150.2,143.5z M68.6,168.4L68.6,168.4
			L51,181.7L63.6,154l0,0v0C65.6,158.2,67.3,163.1,68.6,168.4L68.6,168.4z M131.3,264l0.4,2.1h0l0,0l20.5,12.1l5.2,3l-2.8-7.3
			c16.9,5,30.7,5.3,39.9,1c0,0,0,0,0,0C178.6,279.6,139,266.2,131.3,264z"/>
		<path d="M20.8,157.6c0,2.8,6.4,2.5,6.4,2.5c0-2.6-4.9-5.7-4.9-5.7s-4.4,1.9-9.6,0c-2.1-0.8-4.3-0.5-6.1,0.1
			C4.2,156,1.1,159,1.1,159C12.6,154.7,20.8,157.6,20.8,157.6z M63.6,154L51,181.7l17.6-13.4C67.3,163.1,65.6,158.2,63.6,154z
			 M194.6,274.8c0,0-39.5-14.8-137.6-62.6l58.5,53.3h0l0,0c5.2-2.2,8.9-3.7,16.2,0.5l-0.4-2.1C139,266.2,178.7,279.6,194.6,274.8z
			 M99.6,271.1c1.2,2.6,1.6,4.8,1.6,6.4c0,2.1-0.9,3.8-1.5,4.7c-0.3,0.5-0.9,1.2-0.9,1.2l1.8,2.4c0.2-0.1,3.6-2.7,3.6-8.3
			c0-2.2-0.5-4.7-1.9-7.7L99.6,271.1z M64.4,277.5c2.8,0.4,5.3,0.7,5.3,0.7l0.1-1.5c0,0-2.5-0.2-5.2-0.7L64.4,277.5z M62.4,151.5
			c-1.6-3-3.3-5.6-5.2-7.8l-15.7,11.5c-6.3,3.3-9.7-1.2-9.7-1.2c1.2,1,2.7,1.6,4.4,1.6c3.7,0,6.7-2.9,6.7-6.5c0-0.9-0.2-1.8-0.5-2.5
			c-0.6-1.3-1.6-2.4-2.9-3.1l0,0c0,0-1.4-0.8-1.1-2.1c0.3-1.3,2.8-3.9,2.8-3.9l0,0l7.7-7.8l0.1-0.1l7-7.1l3.4-3.4
			c0.6-0.7,1-1.1,1-1.1l-9.1,3.9c0,0-0.2-0.1,0.7-1.7c0.9-1.6,3-4.6,3-4.6l-16.9,12.1c1-4.7,11.6-18.9,11.6-18.9l-11.2,10.2
			c-0.8-3.6,5.8-17.1,5.8-17.1c-4.1,4.1-7.1,8.5-7.1,8.5c0-3.9,3-9.5,3-9.5C26.7,114.2,23,131.2,22,137.5c-2,1.2-0.8-0.3-1.7,2
			c-9.1,2.6-14.3,10.7-15.4,12.7c7.4-9.1,16.7-8.2,16.7-8.2s11.1,20.5,6.3,18.9c-4.9-1.7-2.5,6.5-2.5,6.5l-9.1-3.9
			c1.5,3,4.5,9.9,2.8,17.2c-1.9,2.8-3.7,6.3-5.4,10.6l3.1-0.5c0.6-1.3,1.2-2.5,1.8-3.6c0.1-0.1,0.2-0.3,0.2-0.4
			c0.1-0.2,0.3-0.5,0.4-0.7c0.1-0.1,0.2-0.3,0.2-0.4c0.1-0.2,0.2-0.4,0.4-0.7c0.1-0.2,0.2-0.3,0.2-0.4c0.1-0.2,0.3-0.4,0.4-0.7
			c0.1-0.1,0.1-0.3,0.2-0.4c0.1-0.2,0.3-0.4,0.4-0.7c0.1-0.1,0.1-0.2,0.2-0.3c0.1-0.2,0.3-0.4,0.4-0.7c0.1-0.1,0.1-0.2,0.2-0.3
			c0.2-0.3,0.4-0.6,0.6-0.9c0,0,0,0,0,0c0.2-0.3,0.4-0.6,0.6-0.9c0.1-0.1,0.1-0.2,0.2-0.2c0.1-0.2,0.3-0.4,0.4-0.6
			c0.1-0.1,0.1-0.2,0.2-0.3c0.1-0.2,0.2-0.3,0.3-0.5c0.1-0.1,0.2-0.2,0.2-0.3c0.1-0.1,0.2-0.3,0.3-0.4c0.1-0.1,0.2-0.2,0.3-0.3
			c0.1-0.1,0.2-0.3,0.3-0.4c0.1-0.1,0.2-0.2,0.3-0.3c0.1-0.1,0.2-0.2,0.3-0.3c0.1-0.1,0.2-0.2,0.2-0.3c0.1-0.1,0.2-0.2,0.3-0.3
			c0.1-0.1,0.2-0.2,0.3-0.3c0.1-0.1,0.2-0.2,0.3-0.3c0.1-0.1,0.1-0.2,0.2-0.2c0.1-0.1,0.2-0.2,0.3-0.3c0.1-0.1,0.2-0.1,0.2-0.2
			c0.1-0.1,0.2-0.2,0.3-0.3c0.1-0.1,0.1-0.1,0.2-0.2c0.1-0.1,0.2-0.2,0.3-0.3c0.1,0,0.1-0.1,0.2-0.2c0.1-0.2,0.3-0.3,0.4-0.4
			c0.1,0,0.1-0.1,0.2-0.1c0.1-0.1,0.1-0.1,0.2-0.2c0-0.1,0.1-0.1,0.2-0.2c0.1-0.1,0.2-0.1,0.2-0.2c0.1,0,0.1-0.1,0.2-0.1
			c0-0.1,0.1-0.1,0.2-0.2c0,0,0.1-0.1,0.1-0.1c0.1,0,0.1-0.1,0.2-0.1c0,0,0.1-0.1,0.1-0.1c0,0,0.1-0.1,0.1-0.1c0,0,0.1-0.1,0.1-0.1
			c0.1,0,0.1,0,0.1-0.1c0,0,0.1,0,0.1-0.1c0,0,0.1-0.1,0.1-0.1c0,0,0.1-0.1,0.1-0.1c0,0,0.1,0,0.1-0.1c0,0,0,0,0,0c0,0,0,0,0.1-0.1
			c0,0,0,0,0,0c0,0,0,0,0.1,0l0,0c0,0,0,0,0,0l-0.2,1.1l0,0l-2.8,13.2C39.2,173.8,55,158.5,62.4,151.5z M31,150.1l1.2-0.4
			c0,0.2,0.1,0.3,0.2,0.5c0.7,1.6,2.2,2.6,3.8,2.6c0.5,0,1-0.1,1.5-0.3c0.8-0.3,1.5-0.9,1.9-1.6l-1.3-0.8c0.2-0.3,0.2-0.7,0.2-1.2
			c0-0.5-0.1-0.9-0.3-1.3l2.8-0.9c1,3-0.4,6.1-3.2,7.1C35.1,154.7,32,153.1,31,150.1z"/>
	</g>
	<g>
		<path class="st1" d="M287.9,172.3c-1.9-0.5-4.7-0.8-8.3-0.8h-7.9v44.7l0.8-0.6l6.5-4.6l0.2-0.2v-12.6h2.5c4.6,0,8.3-1.2,11-3.6
			c2.8-2.4,4.2-5.7,4.2-9.8c0-3.8-1.3-7-3.9-9.6C291.6,173.9,289.9,172.8,287.9,172.3z M281.3,191.8h-2.1v-13.7h2.3c6,0,9,2.2,9,6.6
			C290.6,189.4,287.5,191.8,281.3,191.8z M330,197.2c2.6-0.7,4.8-2.1,6.4-4.2c1.8-2.3,2.7-5,2.7-8.2c0-4-1.5-7.4-4.4-9.8
			c-2.6-2.2-6.9-3.3-12.7-3.3h-8.1v44.7l0.8-0.6l6.5-4.6l0.2-0.2v-12.8h0.4l12.2,17.4l0.3,0.4l0.4-0.3l5.2-3.8l0.4-0.3l-0.3-0.4
			L330,197.2z M321.5,191.8v-0.4l0,0v-12.6l0,0v-0.6h2.3c6,0,9,2.2,9,6.6c0,4.7-3.1,7.1-9.2,7.1H321.5z M216.5,172.9
			c-2.6-0.9-6.1-1.3-10.4-1.3h-9.6v44.2h9.5c4.4,0,7.8-0.4,10.3-1.2c2.6-0.8,5.1-2.3,7.5-4.4c4.7-4.2,7.1-9.7,7.1-16.5
			c0-6.7-2.3-12.2-6.9-16.4C221.7,175.2,219.2,173.7,216.5,172.9z M218.6,204.7c-1.5,1.3-3.2,2.4-5.1,3c-1.8,0.6-4.2,0.9-7.1,0.9
			H204v-29.8h2.4c5.4,0,9.5,1.3,12.2,3.8c3.1,2.8,4.6,6.6,4.6,11.1C223.2,198.1,221.7,201.8,218.6,204.7z M168.9,177.9
			c2.8,0,5.6,0.8,8.2,2.4l0.5,0.3l0.3-0.5l3.2-5.4l0.3-0.5l-0.5-0.3c-3.7-2.1-7.6-3.2-11.5-3.2c-7.2,0-13.2,2.7-17.7,8.1
			c-3.7,4.4-5.6,9.4-5.6,15c0,6.2,2.3,11.7,6.7,16.1c4.5,4.4,9.9,6.6,16.2,6.6c4.2,0,8.2-1.1,12-3.2l0.3-0.2v-0.4l-0.1-0.1l-3.2-5.5
			l-0.3-0.5l-0.5,0.3c-0.9,0.6-1.8,1-2.5,1.4c-1.5,0.7-3.4,1.1-5.6,1.1c-4.2,0-7.9-1.5-10.8-4.5c-2.9-3-4.4-6.7-4.4-11.1
			c0-4.4,1.5-8.2,4.4-11.2C161,179.4,164.6,177.9,168.9,177.9z M537.2,178.7h9.9v37.5l0.8-0.6l6.5-4.6l0.2-0.2v-32.1h9.9v-7.2h-27.4
			V178.7z M377,170.7c-6.3,0-11.8,2.3-16.3,6.7c-4.5,4.4-6.8,9.8-6.8,16c0,7,2.5,12.8,7.5,17.2c4.5,3.9,9.7,5.9,15.4,5.9
			c6.4,0,12-2.3,16.5-6.7c4.5-4.4,6.8-9.8,6.8-16.2c0-6.3-2.3-11.7-6.8-16.2C388.7,173,383.3,170.7,377,170.7z M387.8,204.8
			c-3,3-6.7,4.5-11.1,4.5c-4,0-7.6-1.5-10.6-4.5c-3.1-2.9-4.7-6.8-4.7-11.4c0-4.4,1.5-8.1,4.5-11c3-3,6.7-4.5,11-4.5
			c4.3,0,8,1.5,10.9,4.5c3,3,4.5,6.8,4.5,11.2C392.3,198,390.8,201.7,387.8,204.8z M516.5,171.7L500.6,188v-16.9l-0.8,0.6l-6.5,4.6
			l-0.2,0.2v39.8l0.9-0.6l6.5-4.6l0.2-0.2v-13.3l0.8-0.8l15.1,18.7l0.3,0.4l0.4-0.3l5.6-3.8l0.5-0.3l-0.4-0.5l-16.1-19.4l19.1-19.2
			l0.9-0.9h-10.2L516.5,171.7z M423.3,176.2l-0.2,0.2V200c0,3.6-0.4,6.1-1.1,7.4c-0.7,1.3-1.8,1.9-3.5,1.9c-1.3,0-2.6-0.5-4.1-1.5
			l-0.5-0.3l-0.3,0.5l-3.2,5.6l-0.3,0.5l0.4,0.3c2.4,1.5,5.1,2.2,7.9,2.2c3.8,0,6.8-1.4,9.1-4c1.2-1.3,2-3,2.5-4.9
			c0.5-1.7,0.7-4.2,0.7-7.6v-28.9l-0.9,0.6L423.3,176.2z M469.9,178.7l0.2-0.2l6-6.1l0.9-0.9h-25.6v44.2H470l0.2-0.1l5.8-6.1
			l0.9-0.9h-18v-13.7h5.5l0.1-0.2l6.1-6.1l0.9-0.9h-12.7v-8.9H469.9z"/>
		<g>
			<path class="st1" d="M579,186.2c-4.3,0-7.7-3.5-7.7-7.7c0-4.3,3.5-7.7,7.7-7.7c4.3,0,7.7,3.4,7.7,7.7
				C586.7,182.7,583.3,186.2,579,186.2z M579,171.9c-3.6,0-6.6,2.9-6.6,6.6c0,3.6,2.9,6.6,6.6,6.6c3.6,0,6.6-3,6.6-6.6
				C585.5,174.8,582.6,171.9,579,171.9z M581.1,182.9l-2.3-3.5h-1.5v3.5H576V174h3.6c1.5,0,2.9,1.1,2.9,2.7c0,2-1.8,2.6-2.3,2.6
				l2.4,3.5H581.1z M579.6,175.1h-2.4v3.1h2.4c0.8,0,1.6-0.6,1.6-1.5C581.2,175.7,580.4,175.1,579.6,175.1z"/>
		</g>
	</g>
</g>
</svg>
